<svg width="464.95240478515626px" height="120.8px" xmlns="http://www.w3.org/2000/svg" viewBox="17.52379760742187 14.600000000000001 464.95240478515626 120.8" style="background: rgba(0, 0, 0, 0);" preserveAspectRatio="xMidYMid"><defs><linearGradient id="editing-gradient-gradient" x1="0" x2="1" y1="0.5" y2="0.5" gradientUnits="objectBoundingBox"><stop offset="0" stop-color="#f0f"></stop><stop offset="1" stop-color="#0ff"></stop></linearGradient></defs><g><g transform="translate(84.72823190689087, 103.25500297546387)"><path d="M6.21-31.17L6.21-31.17L6.21-31.17Q4.03-32.83 4.03-36.38L4.03-36.38L4.03-36.38Q4.03-39.94 6.37-41.79L6.37-41.79L6.37-41.79Q8.70-43.65 12.74-43.65L12.74-43.65L12.74-43.65Q15.30-43.65 21.38-42.75L21.38-42.75L25.73-42.11L25.73-42.11Q27.90-41.86 30.18-41.86L30.18-41.86L30.18-41.86Q32.45-41.86 33.98-42.82L33.98-42.82L33.98-42.82Q36.29-40.77 36.29-37.82L36.29-37.82L36.29-37.82Q36.29-34.88 33.66-32.77L33.66-32.77L33.66-32.77Q30.98-30.53 27.52-30.53L27.52-30.53L27.52-30.53Q25.86-30.53 23.17-30.98L23.17-30.98L23.17-30.98Q20.03-21.12 20.03-14.27L20.03-14.27L20.03-14.27Q20.03-7.42 23.49-3.84L23.49-3.84L23.49-3.84Q21.89-0.96 19.52 0.16L19.52 0.16L19.52 0.16Q17.15 1.28 13.60 1.28L13.60 1.28L13.60 1.28Q10.05 1.28 7.84-0.67L7.84-0.67L7.84-0.67Q5.63-2.62 5.63-6.66L5.63-6.66L5.63-6.66Q5.63-11.33 8.19-19.01L8.19-19.01L8.19-19.01Q10.75-26.62 14.59-32.45L14.59-32.45L14.59-32.45Q12.74-32.64 10.82-32.64L10.82-32.64L10.82-32.64Q6.85-32.64 6.21-31.17ZM57.22-10.82L57.22-10.82L57.22-10.82Q58.82-9.73 58.82-7.33L58.82-7.33L58.82-7.33Q58.82-4.93 57.60-3.39L57.60-3.39L57.60-3.39Q56.38-1.86 54.40-0.83L54.40-0.83L54.40-0.83Q50.30 1.28 45.89 1.28L45.89 1.28L45.89 1.28Q41.47 1.28 38.88 0.32L38.88 0.32L38.88 0.32Q36.29-0.64 34.56-2.43L34.56-2.43L34.56-2.43Q31.17-5.82 31.17-12.03L31.17-12.03L31.17-12.03Q31.17-21.70 36.42-27.58L36.42-27.58L36.42-27.58Q42.05-33.92 51.84-33.92L51.84-33.92L51.84-33.92Q57.92-33.92 60.93-31.36L60.93-31.36L60.93-31.36Q63.17-29.44 63.17-26.30L63.17-26.30L63.17-26.30Q63.17-15.04 43.71-15.04L43.71-15.04L43.71-15.04Q43.46-13.38 43.46-11.97L43.46-11.97L43.46-11.97Q43.46-9.02 44.77-7.90L44.77-7.90L44.77-7.90Q46.08-6.78 48.51-6.78L48.51-6.78L48.51-6.78Q50.94-6.78 53.54-7.90L53.54-7.90L53.54-7.90Q56.13-9.02 57.22-10.82ZM44.16-17.79L44.16-17.79L44.16-17.79Q48.70-17.79 51.33-20.61L51.33-20.61L51.33-20.61Q53.95-23.30 53.95-27.58L53.95-27.58L53.95-27.58Q53.95-29.06 53.41-29.86L53.41-29.86L53.41-29.86Q52.86-30.66 51.78-30.66L51.78-30.66L51.78-30.66Q50.69-30.66 49.76-30.24L49.76-30.24L49.76-30.24Q48.83-29.82 47.87-28.42L47.87-28.42L47.87-28.42Q45.50-25.22 44.16-17.79ZM68.13-1.92L68.13-1.92L68.13-1.92Q66.62-3.58 65.95-6.21L65.95-6.21L65.95-6.21Q65.28-8.83 65.28-13.12L65.28-13.12L65.28-13.12Q65.28-17.41 66.75-21.31L66.75-21.31L66.75-21.31Q68.22-25.22 70.91-28.03L70.91-28.03L70.91-28.03Q76.42-33.92 85.50-33.92L85.50-33.92L85.50-33.92Q88.77-33.92 91.14-32.83L91.14-32.83L102.08-33.92L97.34-8.96L97.34-8.96Q97.15-8.19 97.15-6.78L97.15-6.78L97.15-6.78Q97.15-5.38 98.02-4.48L98.02-4.48L98.02-4.48Q98.88-3.58 100.16-3.46L100.16-3.46L100.16-3.46Q99.52-1.28 97.18 0L97.18 0L97.18 0Q94.85 1.28 92.22 1.28L92.22 1.28L92.22 1.28Q89.60 1.28 87.84 0.29L87.84 0.29L87.84 0.29Q86.08-0.70 85.57-2.37L85.57-2.37L85.57-2.37Q84.54-0.77 82.37 0.26L82.37 0.26L82.37 0.26Q80.19 1.28 77.28 1.28L77.28 1.28L77.28 1.28Q74.37 1.28 72 0.51L72 0.51L72 0.51Q69.63-0.26 68.13-1.92ZM81.63-27.90L81.63-27.90L81.63-27.90Q80.90-26.75 80.26-24.80L80.26-24.80L80.26-24.80Q79.62-22.85 78.56-17.63L78.56-17.63L78.56-17.63Q77.50-12.42 77.50-8.70L77.50-8.70L77.50-8.70Q77.50-4.99 78.08-3.90L78.08-3.90L78.08-3.90Q78.66-2.82 79.68-2.82L79.68-2.82L79.68-2.82Q81.73-2.82 83.23-4.77L83.23-4.77L83.23-4.77Q84.74-6.72 85.31-10.18L85.31-10.18L88.70-28.93L88.70-28.93Q87.36-30.08 85.79-30.08L85.79-30.08L85.79-30.08Q84.22-30.08 83.30-29.57L83.30-29.57L83.30-29.57Q82.37-29.06 81.63-27.90ZM151.62 1.28L151.62 1.28L151.62 1.28Q143.87 1.28 143.87-4.74L143.87-4.74L143.87-4.74Q143.87-7.36 144.99-12.45L144.99-12.45L144.99-12.45Q146.11-17.54 146.50-19.58L146.50-19.58L146.50-19.58Q147.39-24.26 147.39-25.73L147.39-25.73L147.39-25.73Q147.39-28.99 144.96-28.99L144.96-28.99L144.96-28.99Q143.36-28.99 141.82-26.78L141.82-26.78L141.82-26.78Q140.29-24.58 139.58-20.16L139.58-20.16L135.62 0L123.14 1.28L126.59-16.13L126.59-16.13Q127.17-19.01 127.68-22.27L127.68-22.27L127.68-22.27Q128.19-25.54 128.19-26.05L128.19-26.05L128.19-26.05Q128.19-28.99 126.02-28.99L126.02-28.99L126.02-28.99Q124.54-28.99 122.94-26.82L122.94-26.82L122.94-26.82Q121.34-24.64 120.45-20.16L120.45-20.16L116.54 0L103.94 1.28L110.66-32.64L121.09-33.92L120-27.46L120-27.46Q121.66-30.91 124.74-32.42L124.74-32.42L124.74-32.42Q127.81-33.92 132.61-33.92L132.61-33.92L132.61-33.92Q135.36-33.92 137.15-32.58L137.15-32.58L137.15-32.58Q138.94-31.23 139.52-29.06L139.52-29.06L139.52-29.06Q140.61-31.30 143.39-32.61L143.39-32.61L143.39-32.61Q146.18-33.92 149.60-33.92L149.60-33.92L149.60-33.92Q153.02-33.92 154.72-33.18L154.72-33.18L154.72-33.18Q156.42-32.45 157.44-31.23L157.44-31.23L157.44-31.23Q159.17-28.99 159.17-24.90L159.17-24.90L159.17-24.90Q159.17-20.86 157.44-12.48L157.44-12.48L157.44-12.48Q156.54-8.38 156.54-6.88L156.54-6.88L156.54-6.88Q156.54-5.38 157.41-4.48L157.41-4.48L157.41-4.48Q158.27-3.58 159.55-3.46L159.55-3.46L159.55-3.46Q158.91-1.28 156.70 0L156.70 0L156.70 0Q154.50 1.28 151.62 1.28ZM202.62-29.57L202.62-29.57L202.62-29.57Q203.58-31.49 203.58-33.28L203.58-33.28L203.58-33.28Q203.58-35.07 203.39-36.06L203.39-36.06L203.39-36.06Q203.20-37.06 202.75-37.82L202.75-37.82L202.75-37.82Q201.79-39.49 199.87-39.49L199.87-39.49L199.87-39.49Q197.50-39.49 195.58-37.76L195.58-37.76L195.58-37.76Q193.54-35.97 193.54-33.15L193.54-33.15L193.54-33.15Q193.54-31.36 194.78-29.98L194.78-29.98L194.78-29.98Q196.03-28.61 197.95-27.33L197.95-27.33L197.95-27.33Q199.87-26.05 202.05-24.77L202.05-24.77L202.05-24.77Q204.22-23.49 206.14-21.95L206.14-21.95L206.14-21.95Q210.56-18.43 210.56-13.70L210.56-13.70L210.56-13.70Q210.56-10.50 208.86-7.78L208.86-7.78L208.86-7.78Q207.17-5.06 204.35-3.07L204.35-3.07L204.35-3.07Q198.21 1.28 190.08 1.28L190.08 1.28L190.08 1.28Q183.49 1.28 180.10-0.86L180.10-0.86L180.10-0.86Q176.70-3.01 176.70-6.27L176.70-6.27L176.70-6.27Q176.70-12.10 181.25-13.57L181.25-13.57L181.25-13.57Q182.53-14.02 184.48-14.02L184.48-14.02L184.48-14.02Q186.43-14.02 188.67-13.18L188.67-13.18L188.67-13.18Q187.65-10.56 187.65-8.19L187.65-8.19L187.65-8.19Q187.65-3.07 191.30-3.07L191.30-3.07L191.30-3.07Q193.66-3.07 195.62-4.80L195.62-4.80L195.62-4.80Q197.57-6.53 197.57-8.48L197.57-8.48L197.57-8.48Q197.57-10.43 196.32-11.84L196.32-11.84L196.32-11.84Q195.07-13.25 193.22-14.37L193.22-14.37L193.22-14.37Q191.36-15.49 189.22-16.58L189.22-16.58L189.22-16.58Q187.07-17.66 185.22-19.20L185.22-19.20L185.22-19.20Q180.86-22.72 180.86-28.35L180.86-28.35L180.86-28.35Q180.86-32 182.66-34.85L182.66-34.85L182.66-34.85Q184.45-37.70 187.33-39.62L187.33-39.62L187.33-39.62Q193.09-43.52 200.16-43.52L200.16-43.52L200.16-43.52Q207.23-43.52 210.66-41.41L210.66-41.41L210.66-41.41Q214.08-39.30 214.08-35.71L214.08-35.71L214.08-35.71Q214.08-32.58 211.65-30.59L211.65-30.59L211.65-30.59Q209.54-28.93 206.98-28.93L206.98-28.93L206.98-28.93Q204.42-28.93 202.62-29.57ZM235.78-7.23L235.78-7.23L235.78-7.23Q232.45-3.78 226.37-3.78L226.37-3.78L226.37-3.78Q218.75-3.78 217.15-9.34L217.15-9.34L217.15-9.34Q216.64-11.01 216.64-12.86L216.64-12.86L216.64-12.86Q216.64-14.72 217.02-16.64L217.02-16.64L220.03-32.64L233.02-33.92L229.50-15.30L229.50-15.30Q229.38-14.46 229.18-13.57L229.18-13.57L229.18-13.57Q228.99-12.67 228.99-11.74L228.99-11.74L228.99-11.74Q228.99-10.82 229.31-10.21L229.31-10.21L229.31-10.21Q229.63-9.60 230.08-9.22L230.08-9.22L230.08-9.22Q230.85-8.70 232.22-8.70L232.22-8.70L232.22-8.70Q233.60-8.70 234.78-10.37L234.78-10.37L234.78-10.37Q235.97-12.03 236.54-14.91L236.54-14.91L240.06-32.64L252.67-33.92L247.87-8.77L247.87-8.77Q245.50 3.52 240.64 8.38L240.64 8.38L240.64 8.38Q238.14 10.88 234.91 11.87L234.91 11.87L234.91 11.87Q231.68 12.86 227.52 12.86L227.52 12.86L227.52 12.86Q220.80 12.86 216.96 10.75L216.96 10.75L216.96 10.75Q213.12 8.64 213.12 5.12L213.12 5.12L213.12 5.12Q213.12 2.50 215.10 0.99L215.10 0.99L215.10 0.99Q217.09-0.51 220.16-0.51L220.16-0.51L220.16-0.51Q222.85-0.51 224.90 0.64L224.90 0.64L224.90 0.64Q226.11 1.34 226.69 2.24L226.69 2.24L226.69 2.24Q225.22 3.52 225.22 5.63L225.22 5.63L225.22 5.63Q225.22 8.45 227.78 8.45L227.78 8.45L227.78 8.45Q232 8.45 234.43-1.28L234.43-1.28L234.43-1.28Q235.14-4.16 235.78-7.23ZM282.05 1.28L282.05 1.28L282.05 1.28Q274.30 1.28 274.30-4.74L274.30-4.74L274.30-4.74Q274.37-6.40 274.88-9.22L274.88-9.22L276.03-15.10L276.03-15.10Q277.76-23.42 277.76-25.28L277.76-25.28L277.76-25.28Q277.76-28.99 275.58-28.99L275.58-28.99L275.58-28.99Q271.94-28.99 270.02-19.46L270.02-19.46L266.24 0L253.38 1.28L260.03-32.70L270.53-33.92L269.50-27.65L269.50-27.65Q272.51-33.92 281.73-33.92L281.73-33.92L281.73-33.92Q286.21-33.92 288.10-32.03L288.10-32.03L288.10-32.03Q289.98-30.14 289.98-25.92L289.98-25.92L289.98-25.92Q289.98-21.95 287.94-12.67L287.94-12.67L287.94-12.67Q286.98-8.51 286.98-6.94L286.98-6.94L286.98-6.94Q286.98-5.38 287.84-4.48L287.84-4.48L287.84-4.48Q288.70-3.58 289.98-3.46L289.98-3.46L289.98-3.46Q289.34-1.28 287.14 0L287.14 0L287.14 0Q284.93 1.28 282.05 1.28ZM326.53-26.62L326.53-26.62L326.53-26.62Q326.53-23.94 324.29-22.27L324.29-22.27L324.29-22.27Q322.05-20.61 318.40-20.61L318.40-20.61L318.40-20.61Q316.86-20.61 315.97-21.06L315.97-21.06L315.97-21.06Q316.67-22.72 316.90-24.80L316.90-24.80L316.90-24.80Q317.12-26.88 317.12-27.46L317.12-27.46L317.12-27.46Q317.12-30.14 315.26-30.14L315.26-30.14L315.26-30.14Q313.98-30.14 312.54-28.54L312.54-28.54L312.54-28.54Q311.10-26.94 309.89-24.45L309.89-24.45L309.89-24.45Q307.20-18.69 307.20-12.86L307.20-12.86L307.20-12.86Q307.20-9.66 308.42-8.22L308.42-8.22L308.42-8.22Q309.63-6.78 312.32-6.78L312.32-6.78L312.32-6.78Q316.03-6.78 318.98-9.86L318.98-9.86L318.98-9.86Q319.81-10.82 320.26-11.90L320.26-11.90L320.26-11.90Q322.69-10.62 322.69-7.10L322.69-7.10L322.69-7.10Q322.69-3.52 318.72-1.15L318.72-1.15L318.72-1.15Q314.62 1.28 308.10 1.28L308.10 1.28L308.10 1.28Q295.10 1.28 295.10-12.48L295.10-12.48L295.10-12.48Q295.10-22.53 300.80-28.29L300.80-28.29L300.80-28.29Q306.30-33.92 316.42-33.92L316.42-33.92L316.42-33.92Q326.53-33.92 326.53-26.62Z" fill="url(#editing-gradient-gradient)"></path></g></g><style>text {
  font-size: 64px;
  font-family: Arial Black;
  dominant-baseline: central;
  text-anchor: middle;
}</style></svg>